<?xml version="1.0" standalone="no"?>
<!DOCTYPE svg PUBLIC "-//W3C//DTD SVG 20010904//EN"
 "http://www.w3.org/TR/2001/REC-SVG-20010904/DTD/svg10.dtd">
<svg version="1.0" xmlns="http://www.w3.org/2000/svg"
 width="200.000000pt" height="200.000000pt" viewBox="0 0 200.000000 200.000000"
 preserveAspectRatio="xMidYMid meet">
<metadata>
Created by potrace 1.16, written by Peter Selinger 2001-2019
</metadata>
<g transform="translate(0.000000,200.000000) scale(0.100000,-0.100000)"
fill="#000000" stroke="none">
<path d="M902 1908 c1 -7 -5 -26 -14 -43 -8 -16 -18 -58 -22 -93 -5 -52 -2
-70 14 -102 11 -22 20 -53 20 -69 0 -25 -8 -35 -60 -66 -109 -66 -120 -79
-120 -141 l0 -54 280 0 280 0 0 54 c0 62 -11 74 -120 142 -68 42 -73 57 -40
129 16 35 19 56 14 107 -8 76 -9 78 -58 117 -35 28 -46 31 -108 31 -50 0 -68
-3 -66 -12z"/>
<path d="M947 1123 c-3 -5 -8 -24 -12 -44 -5 -29 -13 -38 -41 -48 -30 -11 -37
-10 -64 9 -29 20 -32 21 -55 6 -14 -9 -32 -27 -41 -41 -15 -23 -15 -27 5 -58
17 -29 19 -39 10 -65 -9 -25 -18 -32 -50 -37 l-39 -7 0 -58 0 -58 39 -7 c34
-6 42 -12 51 -41 10 -29 9 -38 -4 -53 -9 -10 -16 -26 -16 -37 0 -19 51 -84 66
-84 4 0 21 9 39 20 47 29 90 13 102 -38 9 -37 9 -37 66 -40 l57 -3 6 40 c6 35
11 42 40 51 27 9 38 8 56 -4 31 -22 61 -20 85 7 34 37 35 46 14 81 -18 28 -19
38 -10 64 9 25 18 33 47 38 43 8 52 18 52 61 0 49 -9 63 -49 69 -32 5 -40 12
-50 40 -11 30 -10 37 9 64 24 33 19 49 -25 90 l-26 25 -38 -22 c-33 -19 -43
-21 -69 -11 -24 9 -32 20 -38 52 -9 41 -9 41 -61 44 -28 2 -53 -1 -56 -5z m98
-363 l-80 -80 -45 45 -45 45 22 22 23 22 25 -24 26 -24 57 57 c57 57 57 57 77
37 19 -20 19 -20 -60 -100z"/>
<path d="M230 743 c0 -8 -6 -24 -14 -36 -8 -12 -17 -54 -20 -93 -5 -59 -2 -80
14 -115 32 -71 28 -82 -47 -128 -112 -67 -116 -71 -121 -135 l-4 -56 286 0
286 0 0 51 c0 44 -4 55 -32 81 -18 16 -60 46 -95 66 -38 22 -63 43 -63 53 0 9
11 41 25 71 22 49 24 62 17 117 -7 52 -14 67 -46 99 -37 36 -40 37 -112 37
-55 1 -74 -2 -74 -12z"/>
<path d="M1580 741 c0 -8 -7 -22 -16 -32 -8 -9 -20 -47 -25 -84 -9 -62 -7 -72
16 -122 14 -31 25 -63 25 -72 0 -10 -25 -31 -63 -53 -35 -20 -77 -50 -95 -66
-28 -26 -32 -37 -32 -81 l0 -51 285 0 285 0 0 41 c0 68 -19 91 -127 155 -72
42 -78 61 -42 128 17 32 19 48 13 109 -6 62 -10 76 -36 99 -44 41 -57 46 -126
45 -47 -1 -62 -5 -62 -16z"/>
</g>
</svg>
