<?xml version="1.0" standalone="no"?>
<!DOCTYPE svg PUBLIC "-//W3C//DTD SVG 20010904//EN"
 "http://www.w3.org/TR/2001/REC-SVG-20010904/DTD/svg10.dtd">
<svg version="1.0" xmlns="http://www.w3.org/2000/svg"
 width="861.000000pt" height="183.000000pt" viewBox="0 0 861.000000 183.000000"
 preserveAspectRatio="xMidYMid meet">
<metadata>
Created by potrace 1.10, written by Peter Selinger 2001-2011
</metadata>
<g transform="translate(0.000000,183.000000) scale(0.100000,-0.100000)"
fill="#000000" stroke="none">
<path d="M4351 1739 c-122 -30 -196 -72 -281 -158 -102 -102 -146 -195 -167
-344 -3 -20 -10 -40 -15 -43 -6 -4 -80 -6 -164 -5 -88 1 -161 -2 -172 -8 -10
-5 -61 -58 -113 -118 -52 -59 -105 -119 -118 -133 -13 -14 -42 -46 -64 -73
-23 -26 -46 -46 -52 -44 -6 2 -12 140 -15 413 l-5 409 -130 0 -130 0 -3 -724
c-1 -526 1 -728 9 -737 14 -17 210 -20 240 -4 17 10 19 22 19 131 l0 120 51
55 c29 30 58 54 65 54 7 0 30 -27 51 -61 21 -34 45 -72 53 -84 8 -13 28 -45
44 -72 16 -26 34 -53 40 -59 6 -6 20 -27 30 -47 11 -19 29 -38 40 -41 12 -3
81 -6 154 -6 115 0 132 2 132 16 0 9 -44 82 -97 163 -54 80 -100 150 -102 155
-2 5 -37 59 -77 119 -41 60 -74 117 -74 126 0 9 22 39 48 66 26 28 94 104 152
169 142 162 165 186 179 186 6 0 12 -1 13 -2 2 -2 5 -225 8 -496 l5 -494 124
1 c67 0 125 2 128 4 2 3 4 169 3 371 l0 366 25 10 c15 6 82 10 151 10 l124 0
0 109 c0 60 -3 116 -6 125 -5 14 -27 16 -139 16 -162 0 -168 4 -140 83 41 115
103 176 221 216 l59 20 3 122 c2 91 -1 124 -10 131 -7 4 -15 7 -18 7 -3 -1
-38 -9 -79 -20z"/>
<path d="M585 1498 c-16 -6 -45 -17 -63 -24 -18 -8 -39 -14 -46 -14 -7 0 -35
-9 -61 -21 l-47 -21 4 -421 c3 -376 5 -425 21 -454 9 -18 17 -39 17 -47 0 -30
72 -137 134 -198 95 -94 235 -158 343 -158 l54 0 -3 132 -3 133 -35 7 c-74 14
-115 35 -159 78 -78 76 -91 113 -98 275 -5 116 -3 142 9 152 9 8 62 13 149 15
l134 3 0 125 0 125 -145 5 -145 5 -3 158 c-3 168 -1 164 -57 145z"/>
<path d="M2329 1195 c-66 -14 -100 -34 -159 -95 -53 -53 -74 -93 -91 -172 -20
-96 14 -207 88 -285 71 -74 167 -113 278 -113 64 0 95 -17 95 -52 0 -38 -26
-43 -254 -48 l-221 -5 0 -140 0 -140 235 0 c244 0 264 3 356 49 44 23 108 95
135 152 33 73 31 209 -4 280 -63 124 -188 194 -345 194 -58 0 -82 14 -82 48 0
50 10 52 211 52 103 0 194 3 203 6 13 5 16 26 16 129 0 68 -3 130 -6 139 -5
14 -32 16 -203 15 -111 -1 -220 -7 -252 -14z"/>
<path d="M6055 1186 c-33 -7 -73 -17 -88 -24 -16 -7 -30 -12 -32 -12 -2 0 -30
-16 -63 -36 -74 -44 -147 -113 -193 -185 -79 -122 -90 -189 -87 -502 l3 -252
120 0 120 0 6 250 c3 138 10 266 16 286 28 97 135 199 229 219 27 6 55 14 62
19 12 7 16 85 12 234 0 20 -16 20 -105 3z"/>
<path d="M1300 1173 c-148 -52 -262 -147 -325 -272 -53 -104 -69 -260 -39
-362 35 -120 74 -179 188 -286 33 -31 118 -74 186 -94 72 -22 223 -17 299 9
57 19 65 20 84 7 16 -11 50 -15 132 -15 60 0 116 4 123 8 10 7 12 116 10 513
l-3 504 -127 3 c-119 2 -128 1 -138 -18 -13 -25 -26 -25 -97 0 -72 25 -225 27
-293 3z m243 -273 c93 -41 157 -137 157 -235 0 -164 -196 -302 -337 -238 -138
63 -209 214 -155 330 22 50 86 118 131 142 51 26 146 27 204 1z"/>
<path d="M4850 1183 c-19 -2 -39 -9 -44 -14 -6 -5 -16 -9 -24 -9 -34 0 -158
-73 -202 -120 -41 -43 -88 -110 -104 -150 -10 -25 -23 -54 -29 -65 -6 -11 -13
-71 -15 -133 -4 -98 -2 -121 18 -180 34 -100 103 -198 182 -259 114 -87 295
-124 435 -88 323 82 487 436 341 732 -60 123 -177 224 -307 267 -54 17 -188
28 -251 19z m208 -282 c59 -30 115 -100 137 -170 16 -52 16 -66 5 -108 -57
-213 -292 -285 -438 -134 -55 57 -73 100 -74 175 0 73 26 142 69 182 41 39 96
72 129 77 53 9 131 -1 172 -22z"/>
<path d="M6550 1164 c-14 -7 -37 -14 -52 -14 -15 0 -29 -4 -33 -9 -3 -6 -26
-20 -51 -33 -114 -56 -218 -209 -244 -356 -24 -133 16 -291 103 -406 51 -68
193 -166 242 -166 11 0 38 -7 60 -15 139 -50 356 23 489 164 l30 31 -22 20
c-12 11 -24 20 -28 20 -3 0 -23 13 -43 29 -20 15 -55 39 -78 52 l-41 23 -29
-28 c-41 -42 -123 -76 -180 -76 -89 0 -188 64 -228 148 -10 20 -22 45 -26 54
-14 28 -10 95 8 151 19 58 78 124 142 156 83 43 207 23 280 -45 14 -13 31 -24
38 -24 11 0 81 47 158 105 10 8 23 15 27 15 4 0 8 8 8 17 0 40 -153 152 -250
182 -65 20 -248 24 -280 5z"/>
<path d="M7530 1164 c-19 -7 -47 -13 -61 -13 -14 -1 -46 -12 -70 -26 -24 -14
-51 -28 -59 -32 -70 -32 -200 -197 -200 -255 0 -12 -7 -32 -15 -42 -21 -27
-20 -220 0 -256 8 -14 14 -37 15 -52 0 -15 5 -30 11 -33 5 -4 14 -17 20 -28
28 -66 127 -165 194 -196 28 -13 64 -31 80 -39 46 -24 297 -24 343 1 17 9 47
24 65 34 49 25 107 73 107 89 0 8 -4 14 -8 14 -4 0 -41 30 -81 67 -61 56 -76
65 -90 55 -78 -54 -192 -68 -272 -33 -60 27 -124 85 -116 105 6 14 46 16 362
16 l355 0 0 123 c-1 91 -4 127 -15 141 -8 11 -15 32 -15 47 0 14 -7 32 -15 39
-8 7 -15 17 -15 22 0 17 -87 123 -123 151 -19 14 -53 36 -76 47 -22 12 -44 26
-47 31 -3 5 -20 9 -38 9 -19 0 -50 7 -69 15 -43 18 -119 18 -167 -1z m239
-279 c46 -34 61 -51 61 -70 l0 -25 -215 0 c-189 0 -216 2 -222 16 -4 11 7 28
32 53 69 65 81 69 186 70 l97 1 61 -45z"/>
</g>
</svg>
