<?xml version="1.0" standalone="no"?>
<!DOCTYPE svg PUBLIC "-//W3C//DTD SVG 20010904//EN"
 "http://www.w3.org/TR/2001/REC-SVG-20010904/DTD/svg10.dtd">
<svg version="1.0" xmlns="http://www.w3.org/2000/svg"
 width="287.000000pt" height="61.000000pt" viewBox="0 0 287.000000 61.000000"
 preserveAspectRatio="xMidYMid meet">
<metadata>
Created by potrace 1.16, written by Peter Selinger 2001-2019
</metadata>
<g transform="translate(0.000000,61.000000) scale(0.100000,-0.100000)"
fill="#000000" stroke="none">
<path d="M1436 578 c-55 -15 -112 -75 -123 -130 l-9 -43 -59 -3 c-60 -3 -60
-3 -115 -67 l-55 -63 -3 139 -3 139 -44 0 -45 0 0 -245 0 -245 45 0 45 0 0 43
c0 30 6 49 19 61 18 16 20 14 57 -44 l39 -60 52 0 53 0 -61 95 -61 95 64 72
63 71 3 -166 2 -167 45 0 45 0 0 125 0 125 50 0 50 0 0 39 0 40 -47 3 c-44 3
-48 5 -45 28 2 27 53 80 77 80 11 0 15 12 15 45 0 25 -3 45 -7 44 -5 -1 -25
-6 -47 -11z"/>
<path d="M173 493 l-43 -15 0 -144 c0 -185 19 -229 113 -269 64 -26 77 -22 77
29 0 41 -2 45 -30 51 -46 10 -70 48 -70 111 l0 53 48 3 47 3 3 43 3 42 -50 0
-50 0 -3 53 -3 54 -42 -14z"/>
<path d="M777 400 c-39 -12 -58 -29 -74 -68 -27 -66 19 -137 97 -150 24 -4 45
-13 48 -20 3 -9 -17 -12 -77 -12 l-81 0 0 -50 0 -50 80 0 c122 0 170 33 170
118 0 58 -38 97 -103 107 -30 5 -47 12 -47 21 0 11 17 14 70 14 l70 0 0 50 0
50 -62 -1 c-35 0 -76 -5 -91 -9z"/>
<path d="M414 385 c-41 -17 -92 -78 -100 -120 -21 -115 76 -225 186 -210 25 3
71 6 103 5 l57 -1 0 169 0 170 -108 0 c-64 0 -120 -5 -138 -13z m117 -88 c21
-16 39 -51 39 -77 0 -30 -53 -80 -85 -80 -32 0 -85 50 -85 80 0 49 38 89 85
89 17 0 37 -5 46 -12z"/>
<path d="M1585 386 c-37 -17 -80 -62 -94 -99 -48 -126 71 -262 199 -227 80 21
130 86 130 167 -1 122 -127 207 -235 159z m116 -89 c46 -35 50 -88 10 -128
-81 -80 -199 33 -121 116 26 28 83 34 111 12z"/>
<path d="M1992 389 c-38 -15 -75 -48 -99 -87 -20 -32 -23 -51 -23 -139 l0
-103 40 0 40 0 0 88 c0 103 18 143 74 163 33 12 36 17 36 51 0 33 -3 38 -22
37 -13 0 -34 -4 -46 -10z"/>
</g>
</svg>
